{"title":"RUSH HDRIp.flv","uid":8961227,"size":438820771,"categoryP":"video","categoryS":"movies","magnet":"?xt=urn:btih:92c0c60daa3f65a6e997b72e42f83d2261648e32&amp;dn=RUSH+HDRIp.flv&amp;tr=udp%3A%2F%2Ftracker.openbittorrent.com%3A80&amp;tr=udp%3A%2F%2Fopen.demonii.com%3A1337&amp;tr=udp%3A%2F%2Ftracker.coppersurfer.tk%3A6969&amp;tr=udp%3A%2F%2Fexodus.desync.com%3A6969","seeders":1,"leechers":0,"uploader":"globeplus","files":-1,"time":1380121379,"description":"RUSH HDRIp.flv\n\nFormat                                   : Flash Video\nFile size                                : 418 MiB\nDuration                                 : 1h 57mn\nOverall bit rate                         : 496 Kbps\nTagging application                      : Yet Another Metadata Injector for FLV - Version 1.9\n\nVideo\n\nFormat                                   : AVC\nFormat/Info                              : Advanced Video Codec\nFormat profile                           : &lt;a class=&quot;__cf_email__&quot; href=&quot;/cdn-cgi/l/email-protection&quot; data-cfemail=&quot;5c14353b341c106e726d&quot;&gt;[email&amp;#160;protected]&lt;/a&gt;&lt;script cf-hash='f9e31' type=&quot;text/javascript&quot;&gt;\n/* &lt;![CDATA[ */!function(){try{var t=&quot;currentScript&quot;in document?document.currentScript:function(){for(var t=document.getElementsByTagName(&quot;script&quot;),e=t.length;e--;)if(t[e].getAttribute(&quot;cf-hash&quot;))return t[e]}();if(t&amp;&amp;t.previousSibling){var e,r,n,i,c=t.previousSibling,a=c.getAttribute(&quot;data-cfemail&quot;);if(a){for(e=&quot;&quot;,r=parseInt(a.substr(0,2),16),n=2;a.length-n;n+=2)i=parseInt(a.substr(n,2),16)^r,e+=String.fromCharCode(i);e=document.createTextNode(e),c.parentNode.replaceChild(e,c)}}}catch(u){}}();/* ]]&gt; */&lt;/script&gt;\nFormat settings, CABAC                   : Yes\nFormat settings, ReFrames                : 4 frames\nCodec ID                                 : 7\nDuration                                 : 1h 57mn\nBit rate                                 : 295 Kbps\nWidth                                    : 544 pixels\nHeight                                   : 240 pixels\nDisplay aspect ratio                     : 2.25:1\nFrame rate mode                          : Constant\nFrame rate                               : 25.000 fps\nColor space                              : YUV\nChroma subsampling                       : 4:2:0\nBit depth                                : 8 bits\nScan type                                : Progressive\nBits/(Pixel*Frame)                       : 0.090\nStream size                              : 257 MiB (61%)\n\n\nAudio\n\nFormat                                   : AAC\nFormat/Info                              : Advanced Audio Codec\nFormat profile                           : LC\nCodec ID                                 : 10\nDuration                                 : 1h 57mn\nBit rate                                 : 182 Kbps\nChannel(s)                               : 2 channels\nChannel positions                        : Front: L R\nSampling rate                            : 44.1 KHz\nCompression mode                         : Lossy\nDelay relative to video                  : 21ms\nStream size                              : 160 MiB (38%)\n\n\nPlot\n\nJames Hunt and Niki Lauda are two highly skilled race car drivers who first develop a fierce rivalry in 1970 at a Formula Three race at the Crystal Palace circuit in England, when both their cars spin out and Hunt eventually wins the race. Hunt is a brash, young Briton with a penchant of vomiting before every race, while Lauda is a cool, calculating technical genius who relies on precision. After a falling out with his father, Lauda takes a large bank loan and buys his way into the BRM Formula One team, meeting teammate Clay Regazzoni for the first time. Meanwhile, Hesketh Racing, the fledgling racing team Hunt drives for, enters Formula One as well. Lauda then joins Scuderia Ferrari with Regazzoni and wins his first championship in 1975. Hesketh closes shop after failing to secure a sponsor, but Hunt manages to land a driving position in McLaren after Emerson Fittipaldi leaves the team. During this time, Hunt marries supermodel Suzy Miller, while Lauda develops a relationship with socialite Marlene Knaus.\n\n\n\n* enjoy ...\n\n","torrent":{"xt":"urn:btih:92c0c60daa3f65a6e997b72e42f83d2261648e32","amp;dn":"RUSH+HDRIp.flv","amp;tr":["udp%3A%2F%2Ftracker.openbittorrent.com%3A80","udp%3A%2F%2Fopen.demonii.com%3A1337","udp%3A%2F%2Ftracker.coppersurfer.tk%3A6969","udp%3A%2F%2Fexodus.desync.com%3A6969"],"infoHash":"92c0c60daa3f65a6e997b72e42f83d2261648e32","infoHashBuffer":{"type":"Buffer","data":[146,192,198,13,170,63,101,166,233,151,183,46,66,248,61,34,97,100,142,50]},"announce":[],"urlList":[]}}